<?xml version="1.0" standalone="no"?>
<!DOCTYPE svg PUBLIC "-//W3C//DTD SVG 20010904//EN"
 "http://www.w3.org/TR/2001/REC-SVG-20010904/DTD/svg10.dtd">
<svg version="1.0" xmlns="http://www.w3.org/2000/svg"
 width="16.000000pt" height="16.000000pt" viewBox="0 0 16.000000 16.000000"
 preserveAspectRatio="xMidYMid meet">
<metadata>
Created by potrace 1.11, written by Peter Selinger 2001-2013
</metadata>
<g transform="translate(0.000000,16.000000) scale(0.002286,-0.002286)"
fill="#000000" stroke="none">
<path d="M4285 6911 c-154 -47 -285 -89 -292 -94 -6 -4 -22 -3 -35 2 -44 16
-157 31 -270 36 -62 3 -135 9 -161 14 -127 23 -387 7 -535 -34 -300 -84 -645
-281 -962 -549 -373 -316 -656 -701 -857 -1166 -105 -241 -208 -580 -248 -815
-3 -16 -7 -41 -9 -55 -19 -102 -26 -155 -32 -220 -3 -41 -8 -78 -10 -81 -18
-31 -26 -654 -11 -843 21 -269 207 -872 397 -1286 62 -135 132 -272 177 -342
12 -21 23 -40 23 -43 0 -18 230 -359 277 -410 10 -11 43 -52 75 -90 63 -78
191 -212 283 -295 256 -233 551 -411 859 -519 276 -97 525 -136 711 -111 l95
13 85 128 c47 71 85 133 85 137 0 13 -52 115 -73 142 -10 14 -40 48 -65 75
-66 71 -145 163 -242 285 -113 143 -110 138 -80 119 188 -119 353 -209 490
-268 93 -40 340 -118 445 -140 181 -39 307 -50 515 -46 192 3 220 6 330 26 87
17 130 31 123 42 -3 6 -1 7 5 3 6 -4 40 6 76 21 l65 28 26 85 c15 47 35 111
45 143 15 44 16 63 8 75 -28 44 -119 115 -291 228 -154 101 -467 328 -487 353
-3 4 -17 16 -31 26 -27 22 -111 93 -192 165 -28 25 -99 91 -157 147 l-105 102
110 -43 c190 -74 425 -132 613 -151 127 -13 382 -5 487 15 28 6 68 13 90 16
56 8 193 49 284 84 75 29 198 109 206 133 2 7 6 44 10 82 3 39 8 90 11 115 5
44 5 46 -43 80 -27 20 -119 64 -208 99 -88 35 -211 88 -272 117 -62 30 -115
54 -117 54 -2 0 -55 29 -119 64 -63 34 -121 66 -128 70 -8 3 -30 16 -49 28
-19 11 -44 26 -55 32 -36 21 -259 165 -290 189 -5 4 -53 40 -106 80 -406 305
-699 639 -884 1007 -69 137 -101 223 -139 375 -26 102 -29 122 -42 255 -14
138 -9 376 12 530 4 36 41 222 59 300 21 94 69 232 122 355 88 203 85 196 133
318 l43 108 29 -35 c16 -20 33 -36 38 -36 8 0 729 355 736 363 6 6 -281 491
-292 493 -5 1 -135 -37 -289 -85z"/>
</g>
</svg>
