<?xml version="1.0" standalone="no"?>
<!DOCTYPE svg PUBLIC "-//W3C//DTD SVG 20010904//EN"
 "http://www.w3.org/TR/2001/REC-SVG-20010904/DTD/svg10.dtd">
<svg version="1.0" xmlns="http://www.w3.org/2000/svg"
 width="16.000000pt" height="16.000000pt" viewBox="0 0 16.000000 16.000000"
 preserveAspectRatio="xMidYMid meet">
<metadata>
Created by potrace 1.11, written by Peter Selinger 2001-2013
</metadata>
<g transform="translate(0.000000,16.000000) scale(0.001563,-0.001563)"
fill="#000000" stroke="none">
<path d="M10056 7732 c-10 -17 -210 -110 -301 -140 -49 -16 -142 -41 -205 -56
-300 -67 -553 -89 -1365 -121 -583 -23 -865 -46 -1175 -96 -260 -41 -528 -111
-725 -187 l-100 -39 -55 42 c-295 226 -693 349 -1080 332 -340 -16 -643 -120
-918 -317 l-82 -59 -93 36 c-372 143 -825 226 -1447 263 -96 5 -341 17 -545
25 -402 16 -505 21 -695 36 -304 23 -593 73 -776 135 -98 33 -271 110 -301
136 -20 16 -16 0 18 -99 120 -343 355 -625 726 -874 162 -109 339 -207 783
-434 576 -294 787 -417 1035 -605 72 -54 144 -110 160 -125 l30 -25 -35 -28
c-382 -301 -608 -703 -659 -1174 -58 -529 154 -1077 554 -1430 228 -201 492
-333 797 -400 90 -19 132 -22 328 -22 195 0 238 3 327 22 340 74 632 232 863
465 l74 76 91 -87 c273 -264 609 -426 978 -472 133 -17 401 -7 529 19 222 45
467 151 648 279 122 86 316 280 402 402 129 181 228 414 280 650 19 91 22 134
22 325 0 191 -3 234 -22 325 -52 237 -152 471 -280 649 -92 130 -235 277 -356
367 -56 42 -105 80 -109 84 -10 9 134 121 278 217 207 138 480 291 875 488
650 325 910 492 1151 742 163 169 277 354 353 573 20 57 34 105 32 107 -2 2
-7 0 -10 -5z"/>
</g>
</svg>
